<svg width="30" height="30" viewBox="0 0 30 30" fill="none" xmlns="http://www.w3.org/2000/svg">
<path d="M25.6101 4.38823C23.511 2.2919 20.8373 0.864748 17.927 0.287157C15.0167 -0.290434 12.0005 0.00747085 9.2595 1.14321C6.51853 2.27896 4.17592 4.20155 2.52779 6.66797C0.879662 9.13439 0 12.0339 0 15C0 17.9661 0.879662 20.8656 2.52779 23.332C4.17592 25.7984 6.51853 27.721 9.2595 28.8568C12.0005 29.9925 15.0167 30.2904 17.927 29.7128C20.8373 29.1353 23.511 27.7081 25.6101 25.6118C28.4212 22.7951 30 18.9788 30 15C30 11.0212 28.4212 7.20487 25.6101 4.38823ZM13.5021 18.8012C13.6094 18.9084 13.6945 19.0357 13.7525 19.1757C13.8105 19.3158 13.8404 19.4659 13.8404 19.6175C13.8404 19.7692 13.8105 19.9193 13.7525 20.0593C13.6945 20.1994 13.6094 20.3267 13.5021 20.4339C13.3949 20.5411 13.2676 20.6261 13.1275 20.6842C12.9874 20.7422 12.8372 20.772 12.6855 20.772C12.5339 20.772 12.3837 20.7422 12.2436 20.6842C12.1034 20.6261 11.9761 20.5411 11.8689 20.4339L7.25195 15.8185C7.14463 15.7113 7.0595 15.5841 7.00141 15.444C6.94333 15.3039 6.91343 15.1538 6.91343 15.0022C6.91343 14.8505 6.94333 14.7004 7.00141 14.5603C7.0595 14.4202 7.14463 14.293 7.25195 14.1858L11.8689 9.57043C11.9761 9.46323 12.1034 9.37819 12.2436 9.32017C12.3837 9.26215 12.5339 9.23229 12.6855 9.23229C12.8372 9.23229 12.9874 9.26215 13.1275 9.32017C13.2676 9.37819 13.3949 9.46323 13.5021 9.57043C13.6094 9.67764 13.6945 9.80491 13.7525 9.94498C13.8105 10.085 13.8404 10.2352 13.8404 10.3868C13.8404 10.5384 13.8105 10.6885 13.7525 10.8286C13.6945 10.9687 13.6094 11.0959 13.5021 11.2031L9.69893 15.0007L13.5021 18.8012ZM21.5818 18.8012C21.689 18.9084 21.7741 19.0357 21.8321 19.1757C21.8902 19.3158 21.9201 19.4659 21.9201 19.6175C21.9201 19.7692 21.8902 19.9193 21.8321 20.0593C21.7741 20.1994 21.689 20.3267 21.5818 20.4339C21.4746 20.5411 21.3472 20.6261 21.2071 20.6842C21.067 20.7422 20.9168 20.772 20.7652 20.772C20.6135 20.772 20.4633 20.7422 20.3232 20.6842C20.1831 20.6261 20.0558 20.5411 19.9486 20.4339L15.3316 15.8185C15.2243 15.7113 15.1392 15.5841 15.0811 15.444C15.023 15.3039 14.9931 15.1538 14.9931 15.0022C14.9931 14.8505 15.023 14.7004 15.0811 14.5603C15.1392 14.4202 15.2243 14.293 15.3316 14.1858L19.9486 9.57043C20.0558 9.46323 20.1831 9.37819 20.3232 9.32017C20.4633 9.26215 20.6135 9.23229 20.7652 9.23229C20.9168 9.23229 21.067 9.26215 21.2071 9.32017C21.3472 9.37819 21.4746 9.46323 21.5818 9.57043C21.689 9.67764 21.7741 9.80491 21.8321 9.94498C21.8902 10.085 21.9201 10.2352 21.9201 10.3868C21.9201 10.5384 21.8902 10.6885 21.8321 10.8286C21.7741 10.9687 21.689 11.0959 21.5818 11.2031L17.7829 15.0007L21.5818 18.8012Z" fill="white" fill-opacity="0.5"/>
</svg>
