<svg width="32" height="32" viewBox="0 0 32 32" fill="none" xmlns="http://www.w3.org/2000/svg">
<path d="M4.68257 27.3192C6.92159 29.5553 9.77351 31.0776 12.8778 31.6937C15.9822 32.3098 19.1995 31.992 22.1232 30.7806C25.0469 29.5691 27.5457 27.5183 29.3037 24.8875C31.0617 22.2567 32 19.1638 32 16C32 12.8362 31.0617 9.74335 29.3037 7.11251C27.5457 4.48166 25.0469 2.43089 22.1232 1.21943C19.1995 0.0079716 15.9822 -0.309793 12.8778 0.306303C9.77351 0.922399 6.9216 2.4447 4.68258 4.68077C1.684 7.6852 -2.04491e-06 11.756 -2.41593e-06 16C-2.78696e-06 20.244 1.684 24.3148 4.68257 27.3192ZM17.5977 11.9454C17.4833 11.831 17.3926 11.6953 17.3307 11.5459C17.2688 11.3965 17.2369 11.2363 17.2369 11.0746C17.2369 10.9129 17.2688 10.7528 17.3307 10.6034C17.3926 10.454 17.4833 10.3182 17.5977 10.2039C17.7121 10.0895 17.8479 9.99879 17.9974 9.9369C18.1468 9.87502 18.307 9.84317 18.4688 9.84317C18.6306 9.84317 18.7907 9.87502 18.9402 9.9369C19.0897 9.99879 19.2255 10.0895 19.3398 10.2039L24.2646 15.1269C24.3791 15.2412 24.4699 15.377 24.5318 15.5264C24.5938 15.6758 24.6257 15.836 24.6257 15.9977C24.6257 16.1594 24.5938 16.3196 24.5318 16.469C24.4699 16.6184 24.3791 16.7542 24.2646 16.8685L19.3398 21.7915C19.2255 21.9059 19.0897 21.9966 18.9402 22.0585C18.7907 22.1204 18.6306 22.1522 18.4688 22.1522C18.307 22.1522 18.1468 22.1204 17.9974 22.0585C17.8479 21.9966 17.7121 21.9059 17.5977 21.7915C17.4833 21.6772 17.3926 21.5414 17.3307 21.392C17.2688 21.2426 17.2369 21.0825 17.2369 20.9208C17.2369 20.7591 17.2688 20.5989 17.3307 20.4495C17.3926 20.3001 17.4833 20.1644 17.5977 20.05L21.6545 15.9992L17.5977 11.9454ZM8.97942 11.9454C8.86502 11.831 8.77429 11.6953 8.71238 11.5459C8.65047 11.3965 8.61861 11.2363 8.61861 11.0746C8.61861 10.9129 8.65047 10.7528 8.71238 10.6034C8.77429 10.454 8.86502 10.3182 8.97942 10.2038C9.09381 10.0895 9.2296 9.99879 9.37906 9.9369C9.52852 9.87502 9.68871 9.84317 9.85048 9.84317C10.0122 9.84317 10.1724 9.87502 10.3219 9.9369C10.4714 9.99879 10.6072 10.0895 10.7215 10.2038L15.6463 15.1269C15.7608 15.2412 15.8516 15.377 15.9135 15.5264C15.9755 15.6758 16.0074 15.836 16.0074 15.9977C16.0074 16.1594 15.9755 16.3196 15.9135 16.469C15.8516 16.6184 15.7608 16.7542 15.6463 16.8685L10.7215 21.7915C10.6072 21.9059 10.4714 21.9966 10.3219 22.0585C10.1724 22.1204 10.0122 22.1522 9.85048 22.1522C9.68871 22.1522 9.52852 22.1204 9.37906 22.0585C9.2296 21.9966 9.0938 21.9059 8.97941 21.7915C8.86502 21.6772 8.77429 21.5414 8.71238 21.392C8.65047 21.2426 8.61861 21.0825 8.61861 20.9208C8.61861 20.7591 8.65047 20.5989 8.71238 20.4495C8.77429 20.3001 8.86502 20.1644 8.97942 20.05L13.0316 15.9992L8.97942 11.9454Z" fill="white" fill-opacity="0.6"/>
</svg>
