<svg width="26" height="26" viewBox="0 0 26 26" fill="none" xmlns="http://www.w3.org/2000/svg">
<path d="M13 0.8125C10.5895 0.8125 8.23322 1.52728 6.22899 2.86646C4.22477 4.20564 2.66267 6.10907 1.74022 8.33605C0.817781 10.563 0.576427 13.0135 1.04668 15.3777C1.51694 17.7418 2.67769 19.9134 4.38214 21.6179C6.08659 23.3223 8.2582 24.4831 10.6223 24.9533C12.9865 25.4236 15.437 25.1822 17.664 24.2598C19.8909 23.3373 21.7944 21.7752 23.1335 19.771C24.4727 17.7668 25.1875 15.4105 25.1875 13C25.1841 9.76872 23.899 6.67076 21.6141 4.3859C19.3292 2.10104 16.2313 0.815912 13 0.8125ZM17.6875 14.875C17.6875 15.1236 17.5887 15.3621 17.4129 15.5379C17.2371 15.7137 16.9986 15.8125 16.75 15.8125C16.5014 15.8125 16.2629 15.7137 16.0871 15.5379C15.9113 15.3621 15.8125 15.1236 15.8125 14.875V11.5129L9.91329 17.4133C9.82618 17.5004 9.72278 17.5695 9.60897 17.6166C9.49516 17.6638 9.37319 17.688 9.25001 17.688C9.12682 17.688 9.00485 17.6638 8.89104 17.6166C8.77723 17.5695 8.67383 17.5004 8.58672 17.4133C8.49962 17.3262 8.43053 17.2228 8.38339 17.109C8.33625 16.9952 8.31198 16.8732 8.31198 16.75C8.31198 16.6268 8.33625 16.5048 8.38339 16.391C8.43053 16.2772 8.49962 16.1738 8.58672 16.0867L14.4871 10.1875H11.125C10.8764 10.1875 10.6379 10.0887 10.4621 9.91291C10.2863 9.7371 10.1875 9.49864 10.1875 9.25C10.1875 9.00136 10.2863 8.7629 10.4621 8.58709C10.6379 8.41127 10.8764 8.3125 11.125 8.3125H16.75C16.9986 8.3125 17.2371 8.41127 17.4129 8.58709C17.5887 8.7629 17.6875 9.00136 17.6875 9.25V14.875Z" fill="#00A7FF"/>
</svg>
