<svg width="27" height="23" viewBox="0 0 27 23" fill="none" xmlns="http://www.w3.org/2000/svg">
<path d="M13.125 20.915C13.9529 20.4485 16.5616 18.9057 19.1156 16.6691C22.1768 13.9882 24.7491 10.6664 24.75 7.26732L13.125 20.915ZM13.125 20.915C12.2971 20.4485 9.68836 18.9057 7.13443 16.6691C4.07296 13.988 1.50043 10.6658 1.5 7.26648C1.50195 5.73772 2.1101 4.27212 3.19111 3.19111C4.27212 2.1101 5.73772 1.50194 7.26648 1.5C9.24767 1.50024 10.9078 2.3448 11.9255 3.70025L13.125 5.29783L14.3245 3.70025C15.3422 2.3448 17.0023 1.50024 18.9835 1.5C20.5123 1.50194 21.9779 2.1101 23.0589 3.19111C24.1401 4.27228 24.7482 5.73816 24.75 7.26716L13.125 20.915Z" stroke="white" stroke-opacity="0.5" stroke-width="3"/>
</svg>
