<svg width="24" height="25" viewBox="0 0 24 25" fill="none" xmlns="http://www.w3.org/2000/svg">
<path d="M24 24.0003V12.0003L0.586262 10.5853C0.399643 10.7706 0.251711 10.991 0.151067 11.234C0.0504232 11.4769 -0.000923321 11.7374 1.25669e-05 12.0003V24.0003C1.25669e-05 24.2655 0.10537 24.5199 0.292906 24.7074C0.480442 24.895 0.734796 25.0003 1.00001 25.0003H9.00001C9.26523 25.0003 9.51958 24.895 9.70712 24.7074C9.89466 24.5199 10 24.2655 10 24.0003V18.5003V17.0003H11.5H12.5H14V18.5003V24.0003C14 24.2655 14.1054 24.5199 14.2929 24.7074C14.4804 24.895 14.7348 25.0003 15 25.0003H23C23.2652 25.0003 23.5196 24.895 23.7071 24.7074C23.8947 24.5199 24 24.2655 24 24.0003Z" stroke="#8D939D" stroke-width="3"/>
</svg>
