<svg width="254" height="35" viewBox="0 0 254 35" fill="none" xmlns="http://www.w3.org/2000/svg">
<path d="M18.7514 11.5C18.6662 10.4347 18.2667 9.60369 17.5529 9.0071C16.8498 8.41051 15.7791 8.11221 14.3409 8.11221C13.4247 8.11221 12.6737 8.22408 12.0877 8.4478C11.5124 8.66087 11.0863 8.95383 10.8093 9.3267C10.5323 9.69957 10.3885 10.1257 10.3778 10.6051C10.3565 10.9993 10.4258 11.3562 10.5856 11.6758C10.756 11.9847 11.0224 12.267 11.3846 12.5227C11.7468 12.7678 12.2102 12.9915 12.7749 13.1939C13.3395 13.3963 14.0107 13.5774 14.7884 13.7372L17.473 14.3125C19.2841 14.696 20.8342 15.2021 22.1232 15.8306C23.4123 16.4592 24.467 17.1996 25.2873 18.0518C26.1076 18.8935 26.7095 19.8416 27.093 20.8963C27.4872 21.951 27.6896 23.1016 27.7003 24.348C27.6896 26.5 27.1516 28.3217 26.0863 29.8132C25.021 31.3047 23.4975 32.4393 21.516 33.217C19.5451 33.9947 17.1747 34.3835 14.4048 34.3835C11.5604 34.3835 9.07813 33.9627 6.9581 33.1211C4.84872 32.2795 3.2081 30.9851 2.03622 29.2379C0.875 27.4801 0.289063 25.2322 0.278409 22.4943H8.71591C8.76918 23.4957 9.01953 24.3374 9.46697 25.0192C9.91442 25.701 10.543 26.2177 11.3526 26.5692C12.1729 26.9208 13.1477 27.0966 14.277 27.0966C15.2251 27.0966 16.0188 26.9794 16.658 26.745C17.2972 26.5107 17.782 26.1857 18.1122 25.7702C18.4425 25.3548 18.6129 24.8807 18.6236 24.348C18.6129 23.8473 18.4478 23.4105 18.1282 23.0376C17.8192 22.6541 17.3079 22.3132 16.5941 22.0149C15.8803 21.706 14.9162 21.4183 13.7017 21.152L10.4418 20.4489C7.54403 19.8203 5.25888 18.771 3.58629 17.3008C1.92436 15.82 1.09872 13.8011 1.10938 11.2443C1.09872 9.1669 1.6527 7.3505 2.77131 5.7951C3.90057 4.22905 5.46129 3.00923 7.45348 2.13565C9.45632 1.26207 11.7521 0.825283 14.3409 0.825283C16.983 0.825283 19.2681 1.2674 21.1964 2.15163C23.1246 3.03587 24.6108 4.28232 25.6548 5.89098C26.7095 7.48899 27.2422 9.35866 27.2528 11.5H18.7514ZM43.0332 34.4474C40.3699 34.4474 38.09 33.9201 36.1937 32.8654C34.2974 31.8001 32.8432 30.3192 31.8311 28.4229C30.8191 26.516 30.313 24.3054 30.313 21.7912C30.313 19.277 30.8191 17.0717 31.8311 15.1754C32.8432 13.2685 34.2974 11.7876 36.1937 10.733C38.09 9.66761 40.3699 9.13494 43.0332 9.13494C45.4409 9.13494 47.5236 9.57173 49.2814 10.4453C51.0499 11.3082 52.4189 12.5334 53.3883 14.1207C54.3578 15.6974 54.8478 17.5511 54.8585 19.6818H46.6767C46.5595 18.3928 46.1866 17.4126 45.5581 16.7415C44.9402 16.0597 44.1412 15.7188 43.161 15.7188C42.394 15.7188 41.7228 15.9425 41.1475 16.3899C40.5723 16.8267 40.1248 17.4925 39.8052 18.3874C39.4856 19.2717 39.3258 20.3849 39.3258 21.7273C39.3258 23.0696 39.4856 24.1882 39.8052 25.0831C40.1248 25.9673 40.5723 26.6332 41.1475 27.0806C41.7228 27.5174 42.394 27.7358 43.161 27.7358C43.8109 27.7358 44.3862 27.5866 44.8869 27.2884C45.3876 26.9794 45.7924 26.532 46.1014 25.946C46.421 25.3494 46.6127 24.625 46.6767 23.7727H54.8585C54.8265 25.9354 54.3311 27.821 53.3723 29.4297C52.4135 31.0277 51.0552 32.2635 49.2974 33.1371C47.5502 34.0107 45.4622 34.4474 43.0332 34.4474ZM58.498 34V9.45454H67.0633V14.1207H67.319C67.7664 12.3949 68.4749 11.1325 69.4443 10.3335C70.4244 9.53445 71.5697 9.13494 72.8801 9.13494C73.2636 9.13494 73.6418 9.1669 74.0146 9.23082C74.3982 9.28409 74.7657 9.36399 75.1173 9.47053V16.9972C74.6805 16.848 74.1425 16.7362 73.5033 16.6616C72.8641 16.587 72.3154 16.5497 71.8573 16.5497C70.9944 16.5497 70.2167 16.7468 69.5242 17.141C68.8424 17.5245 68.3044 18.0678 67.9102 18.771C67.5161 19.4634 67.319 20.2784 67.319 21.2159V34H58.498ZM88.4287 34.4474C85.7654 34.4474 83.4855 33.9201 81.5892 32.8654C79.6929 31.8001 78.2387 30.3192 77.2267 28.4229C76.2146 26.516 75.7085 24.3054 75.7085 21.7912C75.7085 19.277 76.2146 17.0717 77.2267 15.1754C78.2387 13.2685 79.6929 11.7876 81.5892 10.733C83.4855 9.66761 85.7654 9.13494 88.4287 9.13494C91.0921 9.13494 93.3719 9.66761 95.2682 10.733C97.1645 11.7876 98.6187 13.2685 99.6308 15.1754C100.643 17.0717 101.149 19.277 101.149 21.7912C101.149 24.3054 100.643 26.516 99.6308 28.4229C98.6187 30.3192 97.1645 31.8001 95.2682 32.8654C93.3719 33.9201 91.0921 34.4474 88.4287 34.4474ZM88.4926 27.9276C89.2384 27.9276 89.8829 27.6772 90.4262 27.1765C90.9695 26.6758 91.3904 25.962 91.6887 25.0352C91.9869 24.1083 92.1361 23.0057 92.1361 21.7273C92.1361 20.4382 91.9869 19.3356 91.6887 18.4194C91.3904 17.4925 90.9695 16.7788 90.4262 16.2781C89.8829 15.7773 89.2384 15.527 88.4926 15.527C87.7043 15.527 87.0278 15.7773 86.4632 16.2781C85.8985 16.7788 85.4671 17.4925 85.1688 18.4194C84.8705 19.3356 84.7213 20.4382 84.7213 21.7273C84.7213 23.0057 84.8705 24.1083 85.1688 25.0352C85.4671 25.962 85.8985 26.6758 86.4632 27.1765C87.0278 27.6772 87.7043 27.9276 88.4926 27.9276ZM113.549 1.27273V34H104.728V1.27273H113.549ZM126.865 1.27273V34H118.044V1.27273H126.865Z" fill="white"/>
<path d="M159.548 1.27273V34H152.133L140.308 16.8054H140.116V34H131.231V1.27273H138.774L150.408 18.4034H150.663V1.27273H159.548ZM175.64 34.4474C173.019 34.4474 170.761 33.9467 168.865 32.9453C166.979 31.9332 165.525 30.4844 164.502 28.5987C163.49 26.7024 162.984 24.4332 162.984 21.7912C162.984 19.2557 163.495 17.0398 164.518 15.1435C165.541 13.2472 166.984 11.7717 168.849 10.717C170.713 9.66229 172.913 9.13494 175.448 9.13494C177.302 9.13494 178.98 9.42259 180.482 9.99787C181.984 10.5732 183.268 11.4094 184.333 12.5067C185.399 13.5934 186.219 14.9144 186.794 16.4698C187.37 18.0252 187.657 19.7777 187.657 21.7273V23.7727H165.733V18.9148H179.539C179.529 18.2116 179.348 17.5937 178.996 17.0611C178.655 16.5178 178.192 16.0969 177.606 15.7987C177.03 15.4897 176.375 15.3352 175.64 15.3352C174.926 15.3352 174.271 15.4897 173.675 15.7987C173.078 16.0969 172.599 16.5124 172.236 17.0451C171.885 17.5778 171.698 18.201 171.677 18.9148V24.1562C171.677 24.9446 171.842 25.6477 172.172 26.2656C172.503 26.8835 172.977 27.3683 173.595 27.7198C174.213 28.0714 174.958 28.2472 175.832 28.2472C176.439 28.2472 176.993 28.1619 177.494 27.9915C178.005 27.821 178.442 27.576 178.804 27.2564C179.166 26.9261 179.433 26.532 179.603 26.0739H187.657C187.38 27.7784 186.725 29.2592 185.692 30.5163C184.658 31.7628 183.289 32.7322 181.585 33.4247C179.891 34.1065 177.909 34.4474 175.64 34.4474ZM195.296 34L189.159 9.45454H197.98L200.793 24.4119H200.985L204.117 9.45454H212.682L215.942 24.2841H216.134L218.818 9.45454H227.639L221.503 34H211.979L208.527 20.8324H208.272L204.82 34H195.296ZM252.76 17.4446H244.642C244.6 16.9439 244.424 16.5124 244.115 16.1502C243.806 15.788 243.407 15.511 242.916 15.3192C242.437 15.1168 241.904 15.0156 241.318 15.0156C240.562 15.0156 239.912 15.1541 239.369 15.4311C238.826 15.7081 238.559 16.1023 238.57 16.6136C238.559 16.9759 238.714 17.3114 239.033 17.6204C239.364 17.9293 239.997 18.169 240.935 18.3395L245.921 19.2344C248.435 19.6925 250.305 20.4648 251.53 21.5515C252.766 22.6275 253.389 24.071 253.399 25.8821C253.389 27.6293 252.867 29.1474 251.833 30.4364C250.811 31.7148 249.41 32.7056 247.631 33.4087C245.862 34.1012 243.843 34.4474 241.574 34.4474C237.824 34.4474 234.889 33.6804 232.769 32.1463C230.66 30.6122 229.483 28.5881 229.237 26.0739H237.995C238.112 26.8516 238.495 27.4535 239.145 27.8796C239.806 28.2951 240.637 28.5028 241.638 28.5028C242.448 28.5028 243.114 28.3643 243.636 28.0874C244.168 27.8104 244.44 27.4162 244.451 26.9048C244.44 26.4361 244.206 26.0632 243.747 25.7862C243.3 25.5092 242.597 25.2855 241.638 25.1151L237.291 24.348C234.788 23.9112 232.913 23.0803 231.666 21.8551C230.42 20.63 229.802 19.0533 229.813 17.125C229.802 15.4205 230.25 13.9769 231.155 12.7944C232.071 11.6012 233.376 10.6957 235.07 10.0778C236.775 9.44922 238.794 9.13494 241.127 9.13494C244.674 9.13494 247.471 9.87003 249.516 11.3402C251.572 12.8104 252.654 14.8452 252.76 17.4446Z" fill="#00A7FF"/>
</svg>
