<svg width="30" height="30" viewBox="0 0 30 30" fill="none" xmlns="http://www.w3.org/2000/svg">
<path d="M28.1254 11.25C28.1254 11.4986 28.0266 11.7371 27.8508 11.9129C27.675 12.0887 27.4365 12.1875 27.1879 12.1875H25.3129V14.0625C25.3129 14.3111 25.2141 14.5496 25.0383 14.7254C24.8625 14.9012 24.624 15 24.3754 15C24.1267 15 23.8883 14.9012 23.7124 14.7254C23.5366 14.5496 23.4379 14.3111 23.4379 14.0625V12.1875H21.5629C21.3142 12.1875 21.0758 12.0887 20.8999 11.9129C20.7241 11.7371 20.6254 11.4986 20.6254 11.25C20.6254 11.0014 20.7241 10.7629 20.8999 10.5871C21.0758 10.4113 21.3142 10.3125 21.5629 10.3125H23.4379V8.4375C23.4379 8.18886 23.5366 7.9504 23.7124 7.77459C23.8883 7.59877 24.1267 7.5 24.3754 7.5C24.624 7.5 24.8625 7.59877 25.0383 7.77459C25.2141 7.9504 25.3129 8.18886 25.3129 8.4375V10.3125H27.1879C27.4365 10.3125 27.675 10.4113 27.8508 10.5871C28.0266 10.7629 28.1254 11.0014 28.1254 11.25ZM16.8754 6.5625H17.8129V7.5C17.8129 7.74864 17.9116 7.9871 18.0874 8.16291C18.2633 8.33873 18.5017 8.4375 18.7504 8.4375C18.999 8.4375 19.2375 8.33873 19.4133 8.16291C19.5891 7.9871 19.6879 7.74864 19.6879 7.5V6.5625H20.6254C20.874 6.5625 21.1125 6.46373 21.2883 6.28791C21.4641 6.1121 21.5629 5.87364 21.5629 5.625C21.5629 5.37636 21.4641 5.1379 21.2883 4.96209C21.1125 4.78627 20.874 4.6875 20.6254 4.6875H19.6879V3.75C19.6879 3.50136 19.5891 3.2629 19.4133 3.08709C19.2375 2.91127 18.999 2.8125 18.7504 2.8125C18.5017 2.8125 18.2633 2.91127 18.0874 3.08709C17.9116 3.2629 17.8129 3.50136 17.8129 3.75V4.6875H16.8754C16.6267 4.6875 16.3883 4.78627 16.2124 4.96209C16.0366 5.1379 15.9379 5.37636 15.9379 5.625C15.9379 5.87364 16.0366 6.1121 16.2124 6.28791C16.3883 6.46373 16.6267 6.5625 16.8754 6.5625ZM24.5089 17.6168C22.8461 17.9453 21.1279 17.8593 19.5062 17.3662C17.8845 16.8731 16.4092 15.9882 15.2107 14.7897C14.0122 13.5911 13.1273 12.1158 12.6342 10.4941C12.1411 8.87243 12.055 7.15426 12.3836 5.49141C12.4157 5.32822 12.4039 5.15941 12.3493 5.00229C12.2947 4.84518 12.1993 4.70542 12.0729 4.59735C11.9465 4.48928 11.7935 4.4168 11.6298 4.38733C11.4661 4.35787 11.2976 4.37249 11.1414 4.42969C9.36614 5.07882 7.78308 6.16479 6.53838 7.58731C5.29368 9.00983 4.42747 10.723 4.01974 12.5687C3.612 14.4144 3.67589 16.3331 4.2055 18.1476C4.73511 19.9621 5.71336 21.6139 7.04993 22.9504C8.3865 24.287 10.0383 25.2652 11.8528 25.7949C13.6673 26.3245 15.5859 26.3883 17.4316 25.9806C19.2773 25.5729 20.9905 24.7067 22.413 23.462C23.8356 22.2173 24.9215 20.6342 25.5707 18.859C25.6279 18.7028 25.6425 18.5342 25.613 18.3705C25.5836 18.2068 25.5111 18.0539 25.403 17.9275C25.2949 17.801 25.1552 17.7056 24.9981 17.651C24.8409 17.5964 24.6721 17.5846 24.5089 17.6168Z" fill="white"/>
</svg>
