<svg width="30" height="30" viewBox="0 0 30 30" fill="none" xmlns="http://www.w3.org/2000/svg">
<path d="M26.9128 25.5867L21.0452 19.7203C22.7459 17.6786 23.5939 15.0598 23.4129 12.4087C23.2319 9.75761 22.0358 7.27837 20.0735 5.48671C18.1111 3.69505 15.5335 2.72891 12.8769 2.78929C10.2204 2.84966 7.68933 3.9319 5.81037 5.81086C3.93141 7.68982 2.84918 10.2208 2.7888 12.8774C2.72843 15.534 3.69456 18.1116 5.48622 20.0739C7.27788 22.0363 9.75713 23.2324 12.4082 23.4134C15.0593 23.5944 17.6781 22.7464 19.7198 21.0457L25.5863 26.9133C25.6734 27.0004 25.7768 27.0695 25.8906 27.1166C26.0044 27.1638 26.1264 27.188 26.2495 27.188C26.3727 27.188 26.4947 27.1638 26.6085 27.1166C26.7223 27.0695 26.8257 27.0004 26.9128 26.9133C26.9999 26.8262 27.069 26.7228 27.1162 26.609C27.1633 26.4952 27.1876 26.3732 27.1876 26.25C27.1876 26.1268 27.1633 26.0049 27.1162 25.8911C27.069 25.7773 26.9999 25.6738 26.9128 25.5867ZM4.68703 13.125C4.68703 11.4562 5.18189 9.82494 6.10901 8.4374C7.03613 7.04986 8.35389 5.9684 9.89564 5.32979C11.4374 4.69118 13.1339 4.52408 14.7706 4.84965C16.4073 5.17521 17.9107 5.9788 19.0907 7.15881C20.2708 8.33882 21.0744 9.84223 21.3999 11.4789C21.7255 13.1157 21.5584 14.8122 20.9198 16.3539C20.2812 17.8957 19.1997 19.2134 17.8122 20.1405C16.4246 21.0677 14.7933 21.5625 13.1245 21.5625C10.8875 21.56 8.74286 20.6703 7.16106 19.0885C5.57926 17.5067 4.68952 15.362 4.68703 13.125Z" fill="white" fill-opacity="0.5"/>
</svg>
