<svg width="26" height="26" viewBox="0 0 26 26" fill="none" xmlns="http://www.w3.org/2000/svg">
<path d="M12 2V1C12 0.734784 12.1054 0.48043 12.2929 0.292893C12.4804 0.105357 12.7348 0 13 0C13.2652 0 13.5196 0.105357 13.7071 0.292893C13.8946 0.48043 14 0.734784 14 1V2C14 2.26522 13.8946 2.51957 13.7071 2.70711C13.5196 2.89464 13.2652 3 13 3C12.7348 3 12.4804 2.89464 12.2929 2.70711C12.1054 2.51957 12 2.26522 12 2ZM13 5C11.4177 5 9.87103 5.46919 8.55544 6.34824C7.23984 7.22729 6.21447 8.47672 5.60896 9.93853C5.00346 11.4003 4.84504 13.0089 5.15372 14.5607C5.4624 16.1126 6.22433 17.538 7.34315 18.6569C8.46197 19.7757 9.88743 20.5376 11.4393 20.8463C12.9911 21.155 14.5997 20.9965 16.0615 20.391C17.5233 19.7855 18.7727 18.7602 19.6518 17.4446C20.5308 16.129 21 14.5823 21 13C20.9977 10.879 20.1541 8.84549 18.6543 7.3457C17.1545 5.84591 15.121 5.00232 13 5ZM4.2925 5.7075C4.48014 5.89514 4.73464 6.00056 5 6.00056C5.26536 6.00056 5.51986 5.89514 5.7075 5.7075C5.89514 5.51986 6.00056 5.26536 6.00056 5C6.00056 4.73464 5.89514 4.48014 5.7075 4.2925L4.7075 3.2925C4.51986 3.10486 4.26536 2.99944 4 2.99944C3.73464 2.99944 3.48014 3.10486 3.2925 3.2925C3.10486 3.48014 2.99944 3.73464 2.99944 4C2.99944 4.26536 3.10486 4.51986 3.2925 4.7075L4.2925 5.7075ZM4.2925 20.2925L3.2925 21.2925C3.10486 21.4801 2.99944 21.7346 2.99944 22C2.99944 22.2654 3.10486 22.5199 3.2925 22.7075C3.48014 22.8951 3.73464 23.0006 4 23.0006C4.26536 23.0006 4.51986 22.8951 4.7075 22.7075L5.7075 21.7075C5.80041 21.6146 5.87411 21.5043 5.92439 21.3829C5.97468 21.2615 6.00056 21.1314 6.00056 21C6.00056 20.8686 5.97468 20.7385 5.92439 20.6171C5.87411 20.4957 5.80041 20.3854 5.7075 20.2925C5.61459 20.1996 5.50429 20.1259 5.3829 20.0756C5.2615 20.0253 5.13139 19.9994 5 19.9994C4.86861 19.9994 4.7385 20.0253 4.6171 20.0756C4.49571 20.1259 4.38541 20.1996 4.2925 20.2925ZM21 6C21.1314 6.0001 21.2615 5.97432 21.3829 5.92414C21.5042 5.87395 21.6146 5.80033 21.7075 5.7075L22.7075 4.7075C22.8951 4.51986 23.0006 4.26536 23.0006 4C23.0006 3.73464 22.8951 3.48014 22.7075 3.2925C22.5199 3.10486 22.2654 2.99944 22 2.99944C21.7346 2.99944 21.4801 3.10486 21.2925 3.2925L20.2925 4.2925C20.1525 4.43236 20.0571 4.61061 20.0185 4.80469C19.9798 4.99878 19.9996 5.19997 20.0754 5.38279C20.1511 5.56561 20.2794 5.72185 20.444 5.83172C20.6086 5.94159 20.8021 6.00016 21 6ZM21.7075 20.2925C21.5199 20.1049 21.2654 19.9994 21 19.9994C20.7346 19.9994 20.4801 20.1049 20.2925 20.2925C20.1049 20.4801 19.9994 20.7346 19.9994 21C19.9994 21.2654 20.1049 21.5199 20.2925 21.7075L21.2925 22.7075C21.3854 22.8004 21.4957 22.8741 21.6171 22.9244C21.7385 22.9747 21.8686 23.0006 22 23.0006C22.1314 23.0006 22.2615 22.9747 22.3829 22.9244C22.5043 22.8741 22.6146 22.8004 22.7075 22.7075C22.8004 22.6146 22.8741 22.5043 22.9244 22.3829C22.9747 22.2615 23.0006 22.1314 23.0006 22C23.0006 21.8686 22.9747 21.7385 22.9244 21.6171C22.8741 21.4957 22.8004 21.3854 22.7075 21.2925L21.7075 20.2925ZM2 12H1C0.734784 12 0.48043 12.1054 0.292893 12.2929C0.105357 12.4804 0 12.7348 0 13C0 13.2652 0.105357 13.5196 0.292893 13.7071C0.48043 13.8946 0.734784 14 1 14H2C2.26522 14 2.51957 13.8946 2.70711 13.7071C2.89464 13.5196 3 13.2652 3 13C3 12.7348 2.89464 12.4804 2.70711 12.2929C2.51957 12.1054 2.26522 12 2 12ZM13 23C12.7348 23 12.4804 23.1054 12.2929 23.2929C12.1054 23.4804 12 23.7348 12 24V25C12 25.2652 12.1054 25.5196 12.2929 25.7071C12.4804 25.8946 12.7348 26 13 26C13.2652 26 13.5196 25.8946 13.7071 25.7071C13.8946 25.5196 14 25.2652 14 25V24C14 23.7348 13.8946 23.4804 13.7071 23.2929C13.5196 23.1054 13.2652 23 13 23ZM25 12H24C23.7348 12 23.4804 12.1054 23.2929 12.2929C23.1054 12.4804 23 12.7348 23 13C23 13.2652 23.1054 13.5196 23.2929 13.7071C23.4804 13.8946 23.7348 14 24 14H25C25.2652 14 25.5196 13.8946 25.7071 13.7071C25.8946 13.5196 26 13.2652 26 13C26 12.7348 25.8946 12.4804 25.7071 12.2929C25.5196 12.1054 25.2652 12 25 12Z" fill="#FFCC00"/>
</svg>
