<svg width="30" height="22" viewBox="0 0 30 22" fill="none" xmlns="http://www.w3.org/2000/svg">
<path d="M13.5256 7.65817L13.5256 7.6581C13.5048 7.5958 13.4965 7.53003 13.5012 7.46453C13.5058 7.39903 13.5233 7.33508 13.5527 7.27635C13.5821 7.21762 13.6227 7.16524 13.6723 7.12222C13.7219 7.0792 13.7795 7.04637 13.8418 7.0256L13.8419 7.02559L15.3419 6.52559L15.3419 6.52559C15.417 6.50053 15.4971 6.4937 15.5754 6.50564C15.6537 6.51759 15.7281 6.54798 15.7924 6.59431C15.8566 6.64064 15.909 6.70158 15.9451 6.77211C15.9812 6.84264 16 6.92073 16 6.99996V7V12C16 12.1326 15.9473 12.2598 15.8536 12.3536C15.7598 12.4473 15.6326 12.5 15.5 12.5C15.3674 12.5 15.2402 12.4473 15.1464 12.3536C15.0527 12.2598 15 12.1326 15 12V8.3875V7.69379L14.3419 7.91316L14.1581 7.97441L14.1581 7.97442C14.0958 7.99519 14.03 8.00349 13.9645 7.99883C13.899 7.99418 13.8351 7.97667 13.7763 7.9473C13.7176 7.91794 13.6652 7.87729 13.6222 7.82768C13.5792 7.77807 13.5464 7.72047 13.5256 7.65817ZM2 20.5H2.5V20V8C2.5 7.60218 2.65804 7.22064 2.93934 6.93934C3.22064 6.65804 3.60218 6.5 4 6.5H9H9.5V6V2C9.5 1.60218 9.65804 1.22064 9.93934 0.93934C10.2206 0.658035 10.6022 0.5 11 0.5H19C19.3978 0.5 19.7794 0.658035 20.0607 0.93934C20.342 1.22064 20.5 1.60218 20.5 2V11V11.5H21H26C26.3978 11.5 26.7794 11.658 27.0607 11.9393C27.342 12.2206 27.5 12.6022 27.5 13V20V20.5H28H29C29.1326 20.5 29.2598 20.5527 29.3536 20.6464C29.4473 20.7402 29.5 20.8674 29.5 21C29.5 21.1326 29.4473 21.2598 29.3536 21.3536C29.2598 21.4473 29.1326 21.5 29 21.5H1C0.867391 21.5 0.740214 21.4473 0.646446 21.3536C0.552679 21.2598 0.5 21.1326 0.5 21C0.5 20.8674 0.552679 20.7402 0.646446 20.6464C0.740214 20.5527 0.867391 20.5 1 20.5H2ZM21 12.5H20.5V13V20V20.5H21H26H26.5V20V13V12.5H26H21ZM10.5 20V20.5H11H19H19.5V20V2V1.5H19H11H10.5V2V20ZM3.5 20V20.5H4H9H9.5V20V8V7.5H9H4H3.5V8V20Z" stroke="white" stroke-opacity="0.5"/>
</svg>
